<mxfile host="Electron" modified="2023-11-23T20:15:41.571Z" agent="Mozilla/5.0 (Windows NT 10.0; Win64; x64) AppleWebKit/537.36 (KHTML, like Gecko) draw.io/22.1.2 Chrome/114.0.5735.289 Electron/25.9.4 Safari/537.36" etag="JDLfL1OhfOUQ7viAcFFH" version="22.1.2" type="device">
  <diagram name="Page-1" id="xsea49cB4eC-gJnZMs8a">
    <mxGraphModel dx="1222" dy="2363" grid="1" gridSize="10" guides="1" tooltips="1" connect="1" arrows="1" fold="1" page="1" pageScale="1" pageWidth="827" pageHeight="1169" math="0" shadow="0">
      <root>
        <mxCell id="0" />
        <mxCell id="1" parent="0" />
        <mxCell id="bFi3GuDL-4pGsV6YZNTf-1" value="Person&amp;nbsp;" style="swimlane;childLayout=stackLayout;horizontal=1;startSize=50;horizontalStack=0;rounded=1;fontSize=14;fontStyle=0;strokeWidth=2;resizeParent=0;resizeLast=1;shadow=0;dashed=0;align=center;arcSize=4;whiteSpace=wrap;html=1;" parent="1" vertex="1">
          <mxGeometry x="1121" y="160" width="160" height="230" as="geometry">
            <mxRectangle x="1121" y="160" width="90" height="50" as="alternateBounds" />
          </mxGeometry>
        </mxCell>
        <mxCell id="bFi3GuDL-4pGsV6YZNTf-2" value="+PersonID [PK]&lt;br&gt;+NationalID&lt;br&gt;+Username&lt;br&gt;+PasswordHash&lt;br&gt;+FirstName&lt;br&gt;+Second Name&lt;br&gt;+LastName&lt;br&gt;+ContactDetails&lt;br&gt;+Gender&lt;br&gt;+DateOfBirth&lt;br&gt;+Address&lt;br&gt;+UserType" style="align=left;strokeColor=none;fillColor=none;spacingLeft=4;fontSize=12;verticalAlign=top;resizable=0;rotatable=0;part=1;html=1;" parent="bFi3GuDL-4pGsV6YZNTf-1" vertex="1">
          <mxGeometry y="50" width="160" height="180" as="geometry" />
        </mxCell>
        <mxCell id="bFi3GuDL-4pGsV6YZNTf-3" value="Enrollment" style="swimlane;childLayout=stackLayout;horizontal=1;startSize=50;horizontalStack=0;rounded=1;fontSize=14;fontStyle=0;strokeWidth=2;resizeParent=0;resizeLast=1;shadow=0;dashed=0;align=center;arcSize=4;whiteSpace=wrap;html=1;" parent="1" vertex="1">
          <mxGeometry x="1270" y="730" width="160" height="120" as="geometry" />
        </mxCell>
        <mxCell id="bFi3GuDL-4pGsV6YZNTf-4" value="+EnrollmentID [PK]&lt;br&gt;+StudentID [FK]&lt;br&gt;+CourseID [FK]&lt;br&gt;+RegistrationDate" style="align=left;strokeColor=none;fillColor=none;spacingLeft=4;fontSize=12;verticalAlign=top;resizable=0;rotatable=0;part=1;html=1;" parent="bFi3GuDL-4pGsV6YZNTf-3" vertex="1">
          <mxGeometry y="50" width="160" height="70" as="geometry" />
        </mxCell>
        <mxCell id="bFi3GuDL-4pGsV6YZNTf-5" value="Field" style="swimlane;childLayout=stackLayout;horizontal=1;startSize=50;horizontalStack=0;rounded=1;fontSize=14;fontStyle=0;strokeWidth=2;resizeParent=0;resizeLast=1;shadow=0;dashed=0;align=center;arcSize=4;whiteSpace=wrap;html=1;" parent="1" vertex="1">
          <mxGeometry x="1440" y="200" width="160" height="90" as="geometry" />
        </mxCell>
        <mxCell id="bFi3GuDL-4pGsV6YZNTf-6" value="+FieldID [PK]&lt;br&gt;+FieldName" style="align=left;strokeColor=none;fillColor=none;spacingLeft=4;fontSize=12;verticalAlign=top;resizable=0;rotatable=0;part=1;html=1;" parent="bFi3GuDL-4pGsV6YZNTf-5" vertex="1">
          <mxGeometry y="50" width="160" height="40" as="geometry" />
        </mxCell>
        <mxCell id="bFi3GuDL-4pGsV6YZNTf-7" value="Grade" style="swimlane;childLayout=stackLayout;horizontal=1;startSize=50;horizontalStack=0;rounded=1;fontSize=14;fontStyle=0;strokeWidth=2;resizeParent=0;resizeLast=1;shadow=0;dashed=0;align=center;arcSize=4;whiteSpace=wrap;html=1;" parent="1" vertex="1">
          <mxGeometry x="2200" y="-50" width="160" height="140" as="geometry" />
        </mxCell>
        <mxCell id="bFi3GuDL-4pGsV6YZNTf-8" value="+GradeID [PK]&lt;br&gt;+StudentID [FK]&lt;br&gt;+CourseID [FK]&lt;br&gt;+Grade&lt;br&gt;+GPA" style="align=left;strokeColor=none;fillColor=none;spacingLeft=4;fontSize=12;verticalAlign=top;resizable=0;rotatable=0;part=1;html=1;" parent="bFi3GuDL-4pGsV6YZNTf-7" vertex="1">
          <mxGeometry y="50" width="160" height="90" as="geometry" />
        </mxCell>
        <mxCell id="bFi3GuDL-4pGsV6YZNTf-9" value="Department" style="swimlane;childLayout=stackLayout;horizontal=1;startSize=50;horizontalStack=0;rounded=1;fontSize=14;fontStyle=0;strokeWidth=2;resizeParent=0;resizeLast=1;shadow=0;dashed=0;align=center;arcSize=4;whiteSpace=wrap;html=1;" parent="1" vertex="1">
          <mxGeometry x="1440" y="490" width="160" height="110" as="geometry" />
        </mxCell>
        <mxCell id="bFi3GuDL-4pGsV6YZNTf-10" value="+DepartmentID [PK]&lt;br&gt;+DepartmentName&lt;br&gt;+FieldID [FK]" style="align=left;strokeColor=none;fillColor=none;spacingLeft=4;fontSize=12;verticalAlign=top;resizable=0;rotatable=0;part=1;html=1;" parent="bFi3GuDL-4pGsV6YZNTf-9" vertex="1">
          <mxGeometry y="50" width="160" height="60" as="geometry" />
        </mxCell>
        <mxCell id="bFi3GuDL-4pGsV6YZNTf-11" value="ExamSchedule" style="swimlane;childLayout=stackLayout;horizontal=1;startSize=50;horizontalStack=0;rounded=1;fontSize=14;fontStyle=0;strokeWidth=2;resizeParent=0;resizeLast=1;shadow=0;dashed=0;align=center;arcSize=4;whiteSpace=wrap;html=1;" parent="1" vertex="1">
          <mxGeometry x="1960" y="710" width="160" height="120" as="geometry" />
        </mxCell>
        <mxCell id="bFi3GuDL-4pGsV6YZNTf-12" value="+ScheduleID [PK]&lt;br&gt;+CourseID [FK]&lt;br&gt;+ExamDate&lt;br&gt;+ExamTime" style="align=left;strokeColor=none;fillColor=none;spacingLeft=4;fontSize=12;verticalAlign=top;resizable=0;rotatable=0;part=1;html=1;" parent="bFi3GuDL-4pGsV6YZNTf-11" vertex="1">
          <mxGeometry y="50" width="160" height="70" as="geometry" />
        </mxCell>
        <mxCell id="bFi3GuDL-4pGsV6YZNTf-13" value="Attendance" style="swimlane;childLayout=stackLayout;horizontal=1;startSize=50;horizontalStack=0;rounded=1;fontSize=14;fontStyle=0;strokeWidth=2;resizeParent=0;resizeLast=1;shadow=0;dashed=0;align=center;arcSize=4;whiteSpace=wrap;html=1;" parent="1" vertex="1">
          <mxGeometry x="1740" y="730" width="160" height="140" as="geometry" />
        </mxCell>
        <mxCell id="bFi3GuDL-4pGsV6YZNTf-14" value="+AttendanceID [PK]&lt;br&gt;+StudentID [FK]&lt;br&gt;+CourseID [FK]&lt;br&gt;+Date&lt;br&gt;+Status" style="align=left;strokeColor=none;fillColor=none;spacingLeft=4;fontSize=12;verticalAlign=top;resizable=0;rotatable=0;part=1;html=1;" parent="bFi3GuDL-4pGsV6YZNTf-13" vertex="1">
          <mxGeometry y="50" width="160" height="90" as="geometry" />
        </mxCell>
        <mxCell id="bFi3GuDL-4pGsV6YZNTf-89" style="edgeStyle=orthogonalEdgeStyle;rounded=0;orthogonalLoop=1;jettySize=auto;html=1;" parent="1" source="bFi3GuDL-4pGsV6YZNTf-15" target="bFi3GuDL-4pGsV6YZNTf-20" edge="1">
          <mxGeometry relative="1" as="geometry" />
        </mxCell>
        <mxCell id="bFi3GuDL-4pGsV6YZNTf-15" value="Track" style="swimlane;childLayout=stackLayout;horizontal=1;startSize=50;horizontalStack=0;rounded=1;fontSize=14;fontStyle=0;strokeWidth=2;resizeParent=0;resizeLast=1;shadow=0;dashed=0;align=center;arcSize=4;whiteSpace=wrap;html=1;" parent="1" vertex="1">
          <mxGeometry x="1920" y="490" width="160" height="110" as="geometry" />
        </mxCell>
        <mxCell id="bFi3GuDL-4pGsV6YZNTf-16" value="+TrackID [PK]&lt;br&gt;+TrackName&lt;br&gt;+DepartmentID [FK]" style="align=left;strokeColor=none;fillColor=none;spacingLeft=4;fontSize=12;verticalAlign=top;resizable=0;rotatable=0;part=1;html=1;" parent="bFi3GuDL-4pGsV6YZNTf-15" vertex="1">
          <mxGeometry y="50" width="160" height="60" as="geometry" />
        </mxCell>
        <mxCell id="bFi3GuDL-4pGsV6YZNTf-17" value="FinnancialTransaction" style="swimlane;childLayout=stackLayout;horizontal=1;startSize=50;horizontalStack=0;rounded=1;fontSize=14;fontStyle=0;strokeWidth=2;resizeParent=0;resizeLast=1;shadow=0;dashed=0;align=center;arcSize=4;whiteSpace=wrap;html=1;" parent="1" vertex="1">
          <mxGeometry x="1469" y="710" width="160" height="140" as="geometry" />
        </mxCell>
        <mxCell id="bFi3GuDL-4pGsV6YZNTf-18" value="+TransactionID [PK]&lt;br&gt;+StudentID [FK]&lt;br&gt;+TransactionType&lt;br&gt;+Amount&lt;br&gt;+Date" style="align=left;strokeColor=none;fillColor=none;spacingLeft=4;fontSize=12;verticalAlign=top;resizable=0;rotatable=0;part=1;html=1;" parent="bFi3GuDL-4pGsV6YZNTf-17" vertex="1">
          <mxGeometry y="50" width="160" height="90" as="geometry" />
        </mxCell>
        <mxCell id="bFi3GuDL-4pGsV6YZNTf-19" value="Course" style="swimlane;childLayout=stackLayout;horizontal=1;startSize=50;horizontalStack=0;rounded=1;fontSize=14;fontStyle=0;strokeWidth=2;resizeParent=0;resizeLast=1;shadow=0;dashed=0;align=center;arcSize=4;whiteSpace=wrap;html=1;" parent="1" vertex="1">
          <mxGeometry x="1920" y="200" width="160" height="150" as="geometry" />
        </mxCell>
        <mxCell id="bFi3GuDL-4pGsV6YZNTf-20" value="+CourseID [PK]&lt;br&gt;+CourseName&lt;br&gt;+TrackID [FK]&lt;br&gt;+Schedule&lt;br&gt;+Syllabus&lt;br&gt;+FacultyID [FK]" style="align=left;strokeColor=none;fillColor=none;spacingLeft=4;fontSize=12;verticalAlign=top;resizable=0;rotatable=0;part=1;html=1;" parent="bFi3GuDL-4pGsV6YZNTf-19" vertex="1">
          <mxGeometry y="50" width="160" height="100" as="geometry" />
        </mxCell>
        <mxCell id="bFi3GuDL-4pGsV6YZNTf-34" value="Message" style="swimlane;childLayout=stackLayout;horizontal=1;startSize=50;horizontalStack=0;rounded=1;fontSize=14;fontStyle=0;strokeWidth=2;resizeParent=0;resizeLast=1;shadow=0;dashed=0;align=center;arcSize=4;whiteSpace=wrap;html=1;" parent="1" vertex="1">
          <mxGeometry x="2150" y="525" width="160" height="150" as="geometry" />
        </mxCell>
        <mxCell id="bFi3GuDL-4pGsV6YZNTf-35" value="+MessageID [PK]&lt;br&gt;+SenderID [FK]&lt;br&gt;+ReceiverID [FK]&lt;br&gt;+Subject&lt;br&gt;+Body&lt;br&gt;+Timestamp" style="align=left;strokeColor=none;fillColor=none;spacingLeft=4;fontSize=12;verticalAlign=top;resizable=0;rotatable=0;part=1;html=1;" parent="bFi3GuDL-4pGsV6YZNTf-34" vertex="1">
          <mxGeometry y="50" width="160" height="100" as="geometry" />
        </mxCell>
        <mxCell id="bFi3GuDL-4pGsV6YZNTf-36" value="Report" style="swimlane;childLayout=stackLayout;horizontal=1;startSize=50;horizontalStack=0;rounded=1;fontSize=14;fontStyle=0;strokeWidth=2;resizeParent=0;resizeLast=1;shadow=0;dashed=0;align=center;arcSize=4;whiteSpace=wrap;html=1;" parent="1" vertex="1">
          <mxGeometry x="1690" y="270" width="160" height="130" as="geometry" />
        </mxCell>
        <mxCell id="bFi3GuDL-4pGsV6YZNTf-37" value="+ReportID [PK]&lt;br&gt;+Type&lt;br&gt;+Content&lt;br&gt;+DateGenerated" style="align=left;strokeColor=none;fillColor=none;spacingLeft=4;fontSize=12;verticalAlign=top;resizable=0;rotatable=0;part=1;html=1;" parent="bFi3GuDL-4pGsV6YZNTf-36" vertex="1">
          <mxGeometry y="50" width="160" height="80" as="geometry" />
        </mxCell>
        <mxCell id="bFi3GuDL-4pGsV6YZNTf-38" value="FieldDepartment" style="swimlane;childLayout=stackLayout;horizontal=1;startSize=50;horizontalStack=0;rounded=1;fontSize=14;fontStyle=0;strokeWidth=2;resizeParent=0;resizeLast=1;shadow=0;dashed=0;align=center;arcSize=4;whiteSpace=wrap;html=1;" parent="1" vertex="1">
          <mxGeometry x="1610" y="-20" width="160" height="120" as="geometry" />
        </mxCell>
        <mxCell id="bFi3GuDL-4pGsV6YZNTf-39" value="+FieldDepartmentID [PK]&lt;br&gt;+FieldID [FK]&lt;br&gt;+DepartmentID [FK]" style="align=left;strokeColor=none;fillColor=none;spacingLeft=4;fontSize=12;verticalAlign=top;resizable=0;rotatable=0;part=1;html=1;" parent="bFi3GuDL-4pGsV6YZNTf-38" vertex="1">
          <mxGeometry y="50" width="160" height="70" as="geometry" />
        </mxCell>
        <mxCell id="bFi3GuDL-4pGsV6YZNTf-40" value="DepartmentTrack" style="swimlane;childLayout=stackLayout;horizontal=1;startSize=50;horizontalStack=0;rounded=1;fontSize=14;fontStyle=0;strokeWidth=2;resizeParent=0;resizeLast=1;shadow=0;dashed=0;align=center;arcSize=4;whiteSpace=wrap;html=1;" parent="1" vertex="1">
          <mxGeometry x="1820" y="-20" width="160" height="120" as="geometry" />
        </mxCell>
        <mxCell id="bFi3GuDL-4pGsV6YZNTf-41" value="+DepartmentTrackID [PK]&lt;br&gt;+DepartmentID [FK]&lt;br&gt;+TrackID [FK]&lt;span style=&quot;white-space: pre;&quot;&gt;&#x9;&lt;/span&gt;" style="align=left;strokeColor=none;fillColor=none;spacingLeft=4;fontSize=12;verticalAlign=top;resizable=0;rotatable=0;part=1;html=1;" parent="bFi3GuDL-4pGsV6YZNTf-40" vertex="1">
          <mxGeometry y="50" width="160" height="70" as="geometry" />
        </mxCell>
        <mxCell id="bFi3GuDL-4pGsV6YZNTf-42" value="Announcement" style="swimlane;childLayout=stackLayout;horizontal=1;startSize=50;horizontalStack=0;rounded=1;fontSize=14;fontStyle=0;strokeWidth=2;resizeParent=0;resizeLast=1;shadow=0;dashed=0;align=center;arcSize=4;whiteSpace=wrap;html=1;" parent="1" vertex="1">
          <mxGeometry x="1970" y="620" width="160" height="140" as="geometry" />
        </mxCell>
        <mxCell id="bFi3GuDL-4pGsV6YZNTf-43" value="+AnnouncementID [PK]&lt;br&gt;&lt;span style=&quot;background-color: initial;&quot;&gt;+&lt;/span&gt;SenderID [FK]&lt;br&gt;&lt;span style=&quot;background-color: initial;&quot;&gt;+&lt;/span&gt;Subject&lt;br&gt;+Body&lt;br&gt;+Timestamp" style="align=left;strokeColor=none;fillColor=none;spacingLeft=4;fontSize=12;verticalAlign=top;resizable=0;rotatable=0;part=1;html=1;" parent="bFi3GuDL-4pGsV6YZNTf-42" vertex="1">
          <mxGeometry y="50" width="160" height="90" as="geometry" />
        </mxCell>
        <mxCell id="bFi3GuDL-4pGsV6YZNTf-44" value="Advising" style="swimlane;childLayout=stackLayout;horizontal=1;startSize=50;horizontalStack=0;rounded=1;fontSize=14;fontStyle=0;strokeWidth=2;resizeParent=0;resizeLast=1;shadow=0;dashed=0;align=center;arcSize=4;whiteSpace=wrap;html=1;" parent="1" vertex="1">
          <mxGeometry x="2150" y="710" width="160" height="120" as="geometry" />
        </mxCell>
        <mxCell id="bFi3GuDL-4pGsV6YZNTf-45" value="+AdvisingID [PK]&lt;br&gt;+StudentID [FK]&lt;br&gt;+Progress&lt;br&gt;+Recommendations" style="align=left;strokeColor=none;fillColor=none;spacingLeft=4;fontSize=12;verticalAlign=top;resizable=0;rotatable=0;part=1;html=1;" parent="bFi3GuDL-4pGsV6YZNTf-44" vertex="1">
          <mxGeometry y="50" width="160" height="70" as="geometry" />
        </mxCell>
        <mxCell id="bFi3GuDL-4pGsV6YZNTf-71" style="edgeStyle=orthogonalEdgeStyle;rounded=0;orthogonalLoop=1;jettySize=auto;html=1;endArrow=block;endFill=0;startSize=6;endSize=16;" parent="1" source="bFi3GuDL-4pGsV6YZNTf-60" target="bFi3GuDL-4pGsV6YZNTf-2" edge="1">
          <mxGeometry relative="1" as="geometry">
            <Array as="points">
              <mxPoint x="1080" y="420" />
              <mxPoint x="1160" y="420" />
            </Array>
          </mxGeometry>
        </mxCell>
        <mxCell id="bFi3GuDL-4pGsV6YZNTf-60" value="Employee" style="swimlane;childLayout=stackLayout;horizontal=1;startSize=50;horizontalStack=0;rounded=1;fontSize=14;fontStyle=0;strokeWidth=2;resizeParent=0;resizeLast=1;shadow=0;dashed=0;align=center;arcSize=4;whiteSpace=wrap;html=1;" parent="1" vertex="1">
          <mxGeometry x="1000" y="440" width="160" height="75" as="geometry" />
        </mxCell>
        <mxCell id="bFi3GuDL-4pGsV6YZNTf-61" value="+salary" style="align=left;strokeColor=none;fillColor=none;spacingLeft=4;fontSize=12;verticalAlign=top;resizable=0;rotatable=0;part=1;html=1;" parent="bFi3GuDL-4pGsV6YZNTf-60" vertex="1">
          <mxGeometry y="50" width="160" height="25" as="geometry" />
        </mxCell>
        <mxCell id="bFi3GuDL-4pGsV6YZNTf-62" value="Student" style="swimlane;childLayout=stackLayout;horizontal=1;startSize=50;horizontalStack=0;rounded=1;fontSize=14;fontStyle=0;strokeWidth=2;resizeParent=0;resizeLast=1;shadow=0;dashed=0;align=center;arcSize=4;whiteSpace=wrap;html=1;" parent="1" vertex="1">
          <mxGeometry x="1240" y="440" width="160" height="90" as="geometry" />
        </mxCell>
        <mxCell id="bFi3GuDL-4pGsV6YZNTf-63" value="+TotalCredit&amp;nbsp;&lt;br&gt;+GPA" style="align=left;strokeColor=none;fillColor=none;spacingLeft=4;fontSize=12;verticalAlign=top;resizable=0;rotatable=0;part=1;html=1;" parent="bFi3GuDL-4pGsV6YZNTf-62" vertex="1">
          <mxGeometry y="50" width="160" height="40" as="geometry" />
        </mxCell>
        <mxCell id="bFi3GuDL-4pGsV6YZNTf-74" style="edgeStyle=orthogonalEdgeStyle;rounded=0;orthogonalLoop=1;jettySize=auto;html=1;entryX=0.5;entryY=1;entryDx=0;entryDy=0;endArrow=block;endFill=0;endSize=14;" parent="1" source="bFi3GuDL-4pGsV6YZNTf-64" target="bFi3GuDL-4pGsV6YZNTf-61" edge="1">
          <mxGeometry relative="1" as="geometry">
            <Array as="points">
              <mxPoint x="960" y="570" />
              <mxPoint x="1080" y="570" />
            </Array>
          </mxGeometry>
        </mxCell>
        <mxCell id="bFi3GuDL-4pGsV6YZNTf-64" value="Instructor" style="swimlane;childLayout=stackLayout;horizontal=1;startSize=50;horizontalStack=0;rounded=1;fontSize=14;fontStyle=0;strokeWidth=2;resizeParent=0;resizeLast=1;shadow=0;dashed=0;align=center;arcSize=4;whiteSpace=wrap;html=1;" parent="1" vertex="1">
          <mxGeometry x="880" y="600" width="160" height="80" as="geometry" />
        </mxCell>
        <mxCell id="bFi3GuDL-4pGsV6YZNTf-65" value="+Rank" style="align=left;strokeColor=none;fillColor=none;spacingLeft=4;fontSize=12;verticalAlign=top;resizable=0;rotatable=0;part=1;html=1;" parent="bFi3GuDL-4pGsV6YZNTf-64" vertex="1">
          <mxGeometry y="50" width="160" height="30" as="geometry" />
        </mxCell>
        <mxCell id="bFi3GuDL-4pGsV6YZNTf-73" style="edgeStyle=orthogonalEdgeStyle;rounded=0;orthogonalLoop=1;jettySize=auto;html=1;entryX=0.5;entryY=1;entryDx=0;entryDy=0;endArrow=block;endFill=0;endSize=14;" parent="1" source="bFi3GuDL-4pGsV6YZNTf-66" target="bFi3GuDL-4pGsV6YZNTf-60" edge="1">
          <mxGeometry relative="1" as="geometry">
            <Array as="points">
              <mxPoint x="1201" y="570" />
              <mxPoint x="1080" y="570" />
            </Array>
          </mxGeometry>
        </mxCell>
        <mxCell id="bFi3GuDL-4pGsV6YZNTf-66" value="Administrator&amp;nbsp;" style="swimlane;childLayout=stackLayout;horizontal=1;startSize=50;horizontalStack=0;rounded=1;fontSize=14;fontStyle=0;strokeWidth=2;resizeParent=0;resizeLast=1;shadow=0;dashed=0;align=center;arcSize=4;whiteSpace=wrap;html=1;" parent="1" vertex="1">
          <mxGeometry x="1121" y="605" width="160" height="80" as="geometry" />
        </mxCell>
        <mxCell id="bFi3GuDL-4pGsV6YZNTf-67" value="+weekly_hours" style="align=left;strokeColor=none;fillColor=none;spacingLeft=4;fontSize=12;verticalAlign=top;resizable=0;rotatable=0;part=1;html=1;" parent="bFi3GuDL-4pGsV6YZNTf-66" vertex="1">
          <mxGeometry y="50" width="160" height="30" as="geometry" />
        </mxCell>
        <mxCell id="bFi3GuDL-4pGsV6YZNTf-72" style="edgeStyle=orthogonalEdgeStyle;rounded=0;orthogonalLoop=1;jettySize=auto;html=1;endArrow=block;endFill=0;startSize=6;endSize=16;exitX=0.5;exitY=0;exitDx=0;exitDy=0;" parent="1" edge="1">
          <mxGeometry relative="1" as="geometry">
            <mxPoint x="1320.02" y="440" as="sourcePoint" />
            <mxPoint x="1240.02" y="390" as="targetPoint" />
            <Array as="points">
              <mxPoint x="1320.02" y="420" />
              <mxPoint x="1240.02" y="420" />
            </Array>
          </mxGeometry>
        </mxCell>
        <mxCell id="bFi3GuDL-4pGsV6YZNTf-83" style="edgeStyle=orthogonalEdgeStyle;rounded=0;orthogonalLoop=1;jettySize=auto;html=1;" parent="1" source="bFi3GuDL-4pGsV6YZNTf-77" target="bFi3GuDL-4pGsV6YZNTf-9" edge="1">
          <mxGeometry relative="1" as="geometry" />
        </mxCell>
        <mxCell id="bFi3GuDL-4pGsV6YZNTf-84" style="edgeStyle=orthogonalEdgeStyle;rounded=0;orthogonalLoop=1;jettySize=auto;html=1;" parent="1" source="bFi3GuDL-4pGsV6YZNTf-77" target="bFi3GuDL-4pGsV6YZNTf-5" edge="1">
          <mxGeometry relative="1" as="geometry" />
        </mxCell>
        <mxCell id="bFi3GuDL-4pGsV6YZNTf-77" value="FieldDepartment" style="shape=rhombus;perimeter=rhombusPerimeter;whiteSpace=wrap;html=1;align=center;" parent="1" vertex="1">
          <mxGeometry x="1460" y="370" width="120" height="60" as="geometry" />
        </mxCell>
        <mxCell id="bFi3GuDL-4pGsV6YZNTf-87" style="edgeStyle=orthogonalEdgeStyle;rounded=0;orthogonalLoop=1;jettySize=auto;html=1;" parent="1" source="bFi3GuDL-4pGsV6YZNTf-86" target="bFi3GuDL-4pGsV6YZNTf-9" edge="1">
          <mxGeometry relative="1" as="geometry" />
        </mxCell>
        <mxCell id="bFi3GuDL-4pGsV6YZNTf-88" style="edgeStyle=orthogonalEdgeStyle;rounded=0;orthogonalLoop=1;jettySize=auto;html=1;" parent="1" source="bFi3GuDL-4pGsV6YZNTf-86" target="bFi3GuDL-4pGsV6YZNTf-15" edge="1">
          <mxGeometry relative="1" as="geometry" />
        </mxCell>
        <mxCell id="bFi3GuDL-4pGsV6YZNTf-86" value="DepartmentTrack" style="shape=rhombus;perimeter=rhombusPerimeter;whiteSpace=wrap;html=1;align=center;" parent="1" vertex="1">
          <mxGeometry x="1690" y="515" width="120" height="60" as="geometry" />
        </mxCell>
      </root>
    </mxGraphModel>
  </diagram>
</mxfile>
